<?xml version="1.0" encoding="UTF-8" standalone="no"?>
<!-- Created with Inkscape (http://www.inkscape.org/) -->

<svg
   width="512"
   height="512"
   viewBox="0 0 135.46666 135.46667"
   version="1.1"
   id="svg5"
   inkscape:version="1.2.2 (b0a8486541, 2022-12-01)"
   sodipodi:docname="logo.svg"
   inkscape:export-filename="logo.png"
   inkscape:export-xdpi="192"
   inkscape:export-ydpi="192"
   xmlns:inkscape="http://www.inkscape.org/namespaces/inkscape"
   xmlns:sodipodi="http://sodipodi.sourceforge.net/DTD/sodipodi-0.dtd"
   xmlns="http://www.w3.org/2000/svg"
   xmlns:svg="http://www.w3.org/2000/svg">
  <sodipodi:namedview
     id="namedview7"
     pagecolor="#505050"
     bordercolor="#eeeeee"
     borderopacity="1"
     inkscape:showpageshadow="0"
     inkscape:pageopacity="0"
     inkscape:pagecheckerboard="0"
     inkscape:deskcolor="#505050"
     inkscape:document-units="mm"
     showgrid="false"
     inkscape:zoom="1.829812"
     inkscape:cx="181.16615"
     inkscape:cy="271.33935"
     inkscape:window-width="2560"
     inkscape:window-height="1398"
     inkscape:window-x="1080"
     inkscape:window-y="480"
     inkscape:window-maximized="1"
     inkscape:current-layer="layer1" />
  <defs
     id="defs2" />
  <g
     inkscape:label="Layer 1"
     inkscape:groupmode="layer"
     id="layer1">
    <path
       id="rect2292"
       style="fill:#ffffff;stroke:#ffffff;stroke-width:3.25984"
       d="M 10.918197 27.029875 C 10.463153 27.029875 10.096541 27.396487 10.096541 27.85153 L 10.096541 124.54847 C 10.096541 125.00351 10.463153 125.37013 10.918197 125.37013 L 107.61514 125.37013 C 108.07018 125.37013 108.43679 125.00351 108.43679 124.54847 L 108.43679 50.256881 L 85.483671 50.256881 C 85.33199 50.256881 85.209786 50.134676 85.209786 49.982996 L 85.209786 27.029875 L 10.918197 27.029875 z M 40.5691 66.292594 C 44.274367 66.292594 47.504783 66.941852 50.259981 68.240279 C 53.046849 69.507037 55.358676 71.264847 57.195475 73.513342 C 59.032274 75.793506 60.394283 78.469388 61.281014 81.541276 C 62.199413 84.613164 62.658191 87.938304 62.658191 91.516895 L 62.658191 95.459806 L 25.937952 95.459806 L 25.937952 95.792086 C 26.159634 98.293933 26.650675 100.49516 27.41073 102.3953 C 28.202454 104.29544 29.279259 105.97388 30.641024 107.43065 C 32.034457 108.98243 33.712901 110.20158 35.676375 111.08831 C 37.63985 111.97504 39.809334 112.41846 42.184505 112.41846 C 45.319731 112.41846 48.106726 111.78508 50.545235 110.51832 C 52.983744 109.25156 55.010368 107.57312 56.625484 105.48297 L 61.993115 109.66307 C 60.282992 112.25993 57.718224 114.57176 54.297978 116.59857 C 50.9094 118.59371 46.713292 119.59167 41.709599 119.59167 C 38.099339 119.59167 34.773682 118.97416 31.733464 117.73907 C 28.724914 116.50398 26.144272 114.77791 23.990784 112.56109 C 21.837295 110.34426 20.158852 107.71548 18.955432 104.67526 C 17.752012 101.63505 17.149858 98.325779 17.149858 94.747188 L 17.149858 92.751961 C 17.149858 88.603329 17.814989 84.898262 19.145085 81.636361 C 20.47518 78.34279 22.248864 75.555795 24.46569 73.275631 C 26.650847 71.027135 29.136765 69.301072 31.923633 68.097652 C 34.742169 66.894232 37.623888 66.292594 40.5691 66.292594 z M 40.5691 73.513342 C 38.795639 73.513342 37.117196 73.84565 35.533748 74.510697 C 33.950301 75.144076 32.525315 76.078021 31.258557 77.31311 C 29.991799 78.579868 28.914994 80.131841 28.028263 81.96864 C 27.173202 83.77377 26.571564 85.863887 26.223206 88.239058 L 53.870097 88.239058 L 53.870097 87.811694 C 53.870097 86.228247 53.569536 84.53393 52.967826 82.7288 C 52.366116 80.892002 51.526895 79.308282 50.450151 77.978186 C 49.373406 76.64809 48.011397 75.571802 46.364612 74.748409 C 44.749496 73.925016 42.817595 73.513342 40.5691 73.513342 z " />
    <rect
       style="fill:#ffffff;stroke:#ffffff;stroke-width:1.08662"
       id="rect2292-3"
       width="32.780052"
       height="32.780052"
       x="90.50164"
       y="12.184977"
       rx="0.27379286"
       ry="0.2737928" />
  </g>
</svg>
